<svg width="20" height="20" viewBox="0 0 20 20" fill="none" xmlns="http://www.w3.org/2000/svg">
<path d="M3.125 16.25C3.125 16.913 3.38839 17.5489 3.85723 18.0178C4.32607 18.4866 4.96196 18.75 5.625 18.75H9.21875C9.26019 18.75 9.29993 18.7335 9.32924 18.7042C9.35854 18.6749 9.375 18.6352 9.375 18.5937V11.4062C9.375 11.3648 9.35854 11.3251 9.32924 11.2957C9.29993 11.2664 9.26019 11.25 9.21875 11.25H3.4375C3.35462 11.25 3.27513 11.2829 3.21653 11.3415C3.15792 11.4001 3.125 11.4796 3.125 11.5625V16.25ZM9.375 9.84374V5.62499H10.625V9.84374C10.625 9.88518 10.6415 9.92492 10.6708 9.95422C10.7001 9.98352 10.7398 9.99999 10.7812 9.99999H16.25C16.4629 10 16.6743 9.96367 16.875 9.89256C17.2402 9.76289 17.5564 9.5234 17.7802 9.20695C18.004 8.8905 18.1244 8.51257 18.125 8.12499V7.49999C18.125 7.0027 17.9275 6.52579 17.5758 6.17416C17.2242 5.82253 16.7473 5.62499 16.25 5.62499H14.6664C14.6528 5.62477 14.6395 5.621 14.6278 5.61405C14.6161 5.60711 14.6064 5.59723 14.5997 5.58539C14.593 5.57355 14.5895 5.56016 14.5895 5.54655C14.5896 5.53294 14.5932 5.51958 14.6 5.5078C14.9617 4.89721 15.0791 4.17247 14.9288 3.4789C14.7785 2.78534 14.3716 2.17422 13.7897 1.7681C13.2077 1.36197 12.4937 1.19085 11.7909 1.28906C11.0881 1.38727 10.4483 1.74755 10 2.29764C9.55166 1.74755 8.91193 1.38727 8.2091 1.28906C7.50627 1.19085 6.79229 1.36197 6.21033 1.7681C5.62837 2.17422 5.22145 2.78534 5.07117 3.4789C4.92088 4.17247 5.03835 4.89721 5.4 5.5078C5.40681 5.51958 5.41042 5.53294 5.41047 5.54655C5.41053 5.56016 5.40703 5.57355 5.40032 5.58539C5.39361 5.59723 5.38392 5.60711 5.37222 5.61405C5.36052 5.621 5.3472 5.62477 5.33359 5.62499H3.75C3.25272 5.62499 2.77581 5.82253 2.42417 6.17416C2.07254 6.52579 1.875 7.0027 1.875 7.49999V8.12499C1.87555 8.51257 1.99598 8.8905 2.21977 9.20695C2.44356 9.5234 2.75975 9.76289 3.125 9.89256C3.3257 9.96367 3.53707 10 3.75 9.99999H9.21875C9.26019 9.99999 9.29993 9.98352 9.32924 9.95422C9.35854 9.92492 9.375 9.88518 9.375 9.84374ZM10.625 4.06249C10.625 3.75345 10.7166 3.45136 10.8883 3.19441C11.06 2.93746 11.304 2.73719 11.5896 2.61892C11.8751 2.50066 12.1892 2.46972 12.4923 2.53001C12.7954 2.5903 13.0738 2.73911 13.2924 2.95763C13.5109 3.17615 13.6597 3.45456 13.72 3.75766C13.7803 4.06075 13.7493 4.37492 13.6311 4.66043C13.5128 4.94594 13.3125 5.18997 13.0556 5.36166C12.7986 5.53335 12.4965 5.62499 12.1875 5.62499H10.625V4.06249ZM7.70078 2.50389C7.91484 2.48855 8.12977 2.51746 8.33216 2.58884C8.53456 2.66022 8.72008 2.77252 8.87716 2.91875C9.03424 3.06498 9.15951 3.24201 9.24516 3.43878C9.33081 3.63556 9.37501 3.84787 9.375 4.06249V5.62499H7.8125C7.40847 5.62395 7.02055 5.46645 6.73016 5.18554C6.43976 4.90463 6.26946 4.52216 6.25501 4.11839C6.24056 3.71462 6.38307 3.32095 6.65263 3.02C6.9222 2.71904 7.29786 2.53421 7.70078 2.50428V2.50389ZM10.7812 18.75H14.375C15.038 18.75 15.6739 18.4866 16.1428 18.0178C16.6116 17.5489 16.875 16.913 16.875 16.25V11.5625C16.875 11.4796 16.8421 11.4001 16.7835 11.3415C16.7249 11.2829 16.6454 11.25 16.5625 11.25H10.7812C10.7398 11.25 10.7001 11.2664 10.6708 11.2957C10.6415 11.3251 10.625 11.3648 10.625 11.4062V18.5937C10.625 18.6352 10.6415 18.6749 10.6708 18.7042C10.7001 18.7335 10.7398 18.75 10.7812 18.75Z" fill="#FF5722"/>
</svg>
