<svg width="20" height="20" viewBox="0 0 20 20" fill="none" xmlns="http://www.w3.org/2000/svg">
<path d="M3.125 16.25C3.125 16.9131 3.38839 17.5489 3.85723 18.0178C4.32607 18.4866 4.96196 18.75 5.625 18.75H9.21875C9.26019 18.75 9.29993 18.7336 9.32924 18.7043C9.35854 18.6749 9.375 18.6352 9.375 18.5938V11.4063C9.375 11.3648 9.35854 11.3251 9.32924 11.2958C9.29993 11.2665 9.26019 11.25 9.21875 11.25H3.4375C3.35462 11.25 3.27513 11.2829 3.21653 11.3415C3.15792 11.4002 3.125 11.4796 3.125 11.5625V16.25ZM9.375 9.84377V5.62502H10.625V9.84377C10.625 9.88521 10.6415 9.92495 10.6708 9.95425C10.7001 9.98355 10.7398 10 10.7812 10H16.25C16.4629 10 16.6743 9.9637 16.875 9.89259C17.2402 9.76292 17.5564 9.52343 17.7802 9.20698C18.004 8.89053 18.1244 8.5126 18.125 8.12502V7.50002C18.125 7.00274 17.9275 6.52582 17.5758 6.17419C17.2242 5.82256 16.7473 5.62502 16.25 5.62502H14.6664C14.6528 5.6248 14.6395 5.62103 14.6278 5.61409C14.6161 5.60714 14.6064 5.59726 14.5997 5.58542C14.593 5.57358 14.5895 5.56019 14.5895 5.54658C14.5896 5.53297 14.5932 5.51961 14.6 5.50783C14.9617 4.89724 15.0791 4.1725 14.9288 3.47893C14.7785 2.78537 14.3716 2.17425 13.7897 1.76813C13.2077 1.362 12.4937 1.19089 11.7909 1.28909C11.0881 1.3873 10.4483 1.74758 10 2.29767C9.55166 1.74758 8.91193 1.3873 8.2091 1.28909C7.50627 1.19089 6.79229 1.362 6.21033 1.76813C5.62837 2.17425 5.22145 2.78537 5.07117 3.47893C4.92088 4.1725 5.03835 4.89724 5.4 5.50783C5.40681 5.51961 5.41042 5.53297 5.41047 5.54658C5.41053 5.56019 5.40703 5.57358 5.40032 5.58542C5.39361 5.59726 5.38392 5.60714 5.37222 5.61409C5.36052 5.62103 5.3472 5.6248 5.33359 5.62502H3.75C3.25272 5.62502 2.77581 5.82256 2.42417 6.17419C2.07254 6.52582 1.875 7.00274 1.875 7.50002V8.12502C1.87555 8.5126 1.99598 8.89053 2.21977 9.20698C2.44356 9.52343 2.75975 9.76292 3.125 9.89259C3.3257 9.9637 3.53707 10 3.75 10H9.21875C9.26019 10 9.29993 9.98355 9.32924 9.95425C9.35854 9.92495 9.375 9.88521 9.375 9.84377ZM10.625 4.06252C10.625 3.75348 10.7166 3.45139 10.8883 3.19444C11.06 2.93749 11.304 2.73722 11.5896 2.61895C11.8751 2.50069 12.1892 2.46975 12.4923 2.53004C12.7954 2.59033 13.0738 2.73914 13.2924 2.95766C13.5109 3.17618 13.6597 3.45459 13.72 3.75769C13.7803 4.06078 13.7493 4.37495 13.6311 4.66046C13.5128 4.94597 13.3125 5.19 13.0556 5.36169C12.7986 5.53338 12.4965 5.62502 12.1875 5.62502H10.625V4.06252ZM7.70078 2.50392C7.91484 2.48858 8.12977 2.51749 8.33216 2.58887C8.53456 2.66025 8.72008 2.77255 8.87716 2.91878C9.03424 3.06502 9.15951 3.24204 9.24516 3.43882C9.33081 3.63559 9.37501 3.8479 9.375 4.06252V5.62502H7.8125C7.40847 5.62398 7.02055 5.46648 6.73016 5.18557C6.43976 4.90466 6.26946 4.52219 6.25501 4.11842C6.24056 3.71465 6.38307 3.32098 6.65263 3.02003C6.9222 2.71907 7.29786 2.53424 7.70078 2.50431V2.50392ZM10.7812 18.75H14.375C15.038 18.75 15.6739 18.4866 16.1428 18.0178C16.6116 17.5489 16.875 16.9131 16.875 16.25V11.5625C16.875 11.4796 16.8421 11.4002 16.7835 11.3415C16.7249 11.2829 16.6454 11.25 16.5625 11.25H10.7812C10.7398 11.25 10.7001 11.2665 10.6708 11.2958C10.6415 11.3251 10.625 11.3648 10.625 11.4063V18.5938C10.625 18.6352 10.6415 18.6749 10.6708 18.7043C10.7001 18.7336 10.7398 18.75 10.7812 18.75Z" fill="white"/>
</svg>
