<svg width="12" height="15" viewBox="0 0 12 15" fill="none" xmlns="http://www.w3.org/2000/svg">
<path d="M6 0C5.20435 0 4.44129 0.323254 3.87868 0.89865C3.31607 1.47405 3 2.25445 3 3.06818V4.09091H0V15H12V4.09091H9V3.06818C9 2.25445 8.68393 1.47405 8.12132 0.89865C7.55871 0.323254 6.79565 0 6 0ZM7.66667 3.06818V4.09091H4.33333V3.06818C4.33333 2.61611 4.50893 2.18255 4.82149 1.86289C5.13405 1.54322 5.55797 1.36364 6 1.36364C6.44203 1.36364 6.86595 1.54322 7.17851 1.86289C7.49107 2.18255 7.66667 2.61611 7.66667 3.06818ZM3 7.5V5.45455H4.33333V7.5H3ZM7.66667 7.5V5.45455H9V7.5H7.66667Z" fill="white"/>
</svg>
